<svg width="20" height="20" viewBox="0 0 20 18" fill="none" xmlns="http://www.w3.org/2000/svg">
<path d="M17.1182 4.47684e-09C17.8533 -4.09425e-05 18.5606 0.280808 19.0954 0.785085C19.6302 1.28936 19.9521 1.97894 19.9952 2.71274L20 2.88181V14.409C20 15.1441 19.7192 15.8514 19.2149 16.3862C18.7106 16.921 18.0211 17.2429 17.2873 17.286L17.1182 17.2908H6.65531C6.19797 17.2907 5.74722 17.1818 5.34033 16.973C4.93343 16.7642 4.58207 16.4616 4.31529 16.0901L4.21154 15.9364L0.292284 9.66366C0.116564 9.38267 0.0165208 9.06099 0.00187674 8.7299C-0.0127673 8.39881 0.0584855 8.06957 0.208711 7.77416L0.291323 7.62718L4.21154 1.35445C4.45393 0.966553 4.78517 0.641924 5.17787 0.407404C5.57058 0.172885 6.01346 0.03521 6.46992 0.00576366L6.65531 4.47684e-09H17.1182ZM17.1182 1.9212H6.65531C6.51325 1.92125 6.37296 1.95281 6.24456 2.01361C6.11616 2.0744 6.00284 2.16292 5.91277 2.27279L5.84072 2.37269L1.92146 8.64542L5.84072 14.9182C5.916 15.0387 6.01709 15.141 6.13669 15.2177C6.25629 15.2945 6.39142 15.3437 6.53236 15.362L6.65531 15.3696H17.1182C17.3535 15.3696 17.5806 15.2832 17.7564 15.1269C17.9322 14.9705 18.0445 14.7551 18.0721 14.5214L18.0788 14.409V2.88181C18.0788 2.64652 17.9924 2.41943 17.836 2.24361C17.6797 2.06779 17.4643 1.95546 17.2306 1.92793L17.1182 1.9212ZM9.31714 5.24873L11.3536 7.28713L13.392 5.24873C13.4813 5.15954 13.5872 5.08881 13.7038 5.04057C13.8204 4.99232 13.9453 4.96752 14.0715 4.96756C14.1977 4.9676 14.3226 4.9925 14.4392 5.04083C14.5557 5.08915 14.6616 5.15996 14.7508 5.24921C14.84 5.33846 14.9107 5.4444 14.959 5.56099C15.0072 5.67758 15.032 5.80252 15.032 5.9287C15.0319 6.05487 15.007 6.1798 14.9587 6.29635C14.9104 6.4129 14.8396 6.5188 14.7503 6.60798L12.7138 8.64542L14.7503 10.6829C14.9306 10.863 15.0319 11.1073 15.032 11.3621C15.0321 11.617 14.9309 11.8614 14.7508 12.0416C14.5707 12.2219 14.3263 12.3232 14.0715 12.3233C13.8167 12.3234 13.5723 12.2222 13.392 12.0421L11.3546 10.0037L9.31714 12.0421C9.13689 12.2224 8.89243 12.3236 8.63752 12.3236C8.38261 12.3236 8.13814 12.2224 7.95789 12.0421C7.77764 11.8619 7.67638 11.6174 7.67638 11.3625C7.67638 11.1076 7.77764 10.8631 7.95789 10.6829L9.99629 8.64542L7.95789 6.60798C7.77764 6.42774 7.67638 6.18327 7.67638 5.92836C7.67638 5.67345 7.77764 5.42898 7.95789 5.24873C8.13814 5.06848 8.38261 4.96722 8.63752 4.96722C8.89243 4.96722 9.13689 5.06848 9.31714 5.24873Z" fill="#4D455D" fill-opacity="0.8"/>
</svg>
