<svg width="20" height="20" viewBox="0 0 17 17" fill="none" xmlns="http://www.w3.org/2000/svg">
<path d="M3.64704 4.52948H2.76469C2.29667 4.52948 1.84781 4.7154 1.51687 5.04635C1.18592 5.37729 1 5.82615 1 6.29417V14.2353C1 14.7033 1.18592 15.1522 1.51687 15.4831C1.84781 15.8141 2.29667 16 2.76469 16H10.7058C11.1738 16 11.6227 15.8141 11.9536 15.4831C12.2846 15.1522 12.4705 14.7033 12.4705 14.2353V13.353" stroke="#4D455D" stroke-opacity="0.8" stroke-width="2" stroke-linecap="round" stroke-linejoin="round"/>
<path d="M11.5882 2.76479L14.2352 5.41183M15.4573 4.16331C15.8048 3.8158 16 3.34448 16 2.85302C16 2.36157 15.8048 1.89025 15.4573 1.54274C15.1098 1.19523 14.6384 1 14.147 1C13.6555 1 13.1842 1.19523 12.8367 1.54274L5.41174 8.94122V11.5883H8.05879L15.4573 4.16331Z" stroke="#4D455D" stroke-opacity="0.8" stroke-width="2" stroke-linecap="round" stroke-linejoin="round"/>
</svg>
